<svg width="24" height="24" viewBox="0 0 24 24" fill="none" xmlns="http://www.w3.org/2000/svg">
<g id="Ai-Sparkles--Streamline-Core.svg" clip-path="url(#clip0_3410_4403)">
<g id="ai-sparkles--artificial-intelligence-ai-sparks-sparkles">
<path id="Union" d="M7.26601 1.88188C6.95809 0.509145 5.01141 0.519069 4.71565 1.89297L4.68708 2.02567C4.38625 3.42311 3.28742 4.48473 1.92067 4.72651C0.502999 4.97731 0.503011 7.02325 1.92067 7.27405C3.28742 7.51583 4.38625 8.57745 4.68708 9.9749L4.71565 10.1076C5.01141 11.4815 6.95809 11.4914 7.26601 10.1187L7.30068 9.96405C7.61301 8.57164 8.71333 7.51766 10.0781 7.27624C11.4982 7.02501 11.4982 4.97555 10.0781 4.72434C8.71333 4.4829 7.61301 3.42892 7.30068 2.03651L7.26601 1.88188Z" fill="#8a7322"/>
<path id="Vector 2142 (Stroke)" d="M13.403 8.14415C13.7705 6.43684 16.184 6.42484 16.5666 8.13032L16.6255 8.39319C17.2083 10.9916 19.2647 12.9685 21.8279 13.422C23.5815 13.7322 23.5815 16.2684 21.8279 16.5786C19.2647 17.032 17.2083 19.009 16.6255 21.6073L16.5666 21.8703C16.184 23.5757 13.7705 23.5637 13.403 21.8564L13.3544 21.6308C12.7927 19.0217 10.738 17.0292 8.16947 16.5749C6.42007 16.2654 6.42007 13.7352 8.16947 13.4257C10.738 12.9713 12.7927 10.9789 13.3544 8.36972L13.403 8.14415Z" fill="#a38829"/>
</g>
</g>
<defs>
<clipPath id="clip0_3410_4403">
<rect width="24" height="24" fill="white"/>
</clipPath>
</defs>
</svg>
